<svg xmlns="http://www.w3.org/2000/svg" viewBox="0 0 780 500" width="120" height="77">
  <rect width="780" height="500" rx="40" fill="#1A1F71"/>
  <path d="M293.2 348.7l33.4-195.8h53.4l-33.4 195.8h-53.4zM540.7 158.5c-10.6-4-27.2-8.2-47.9-8.2-52.8 0-90 26.6-90.3 64.6-.3 28.1 26.5 43.8 46.8 53.2 20.8 9.6 27.8 15.7 27.7 24.3-.1 13.1-16.6 19.1-31.9 19.1-21.4 0-32.7-3-50.3-10.2l-6.9-3.1-7.5 43.8c12.5 5.5 35.6 10.2 59.6 10.5 56.2 0 92.7-26.3 93.1-66.8.2-22.3-14-39.2-44.8-53.2-18.7-9.1-30.1-15.1-30-24.3 0-8.1 9.7-16.8 30.6-16.8 17.5-.3 30.1 3.5 40 7.5l4.8 2.3 7.2-42.7zM641.5 152.9h-41.3c-12.8 0-22.4 3.5-28 16.3l-79.3 179.5h56.1s9.2-24.1 11.2-29.4c6.1 0 60.7.1 68.5.1 1.6 6.9 6.5 29.3 6.5 29.3h49.6l-43.3-195.8zm-65.9 126.3c4.4-11.3 21.4-54.8 21.4-54.8-.3.5 4.4-11.4 7.1-18.8l3.6 17s10.3 47 12.4 56.6h-44.5zM232.8 152.9l-52.3 133.5-5.6-27.2c-9.7-31.2-40-65-73.9-81.9l47.8 171.2 56.6-.1 84.2-195.5h-56.8z" fill="#fff"/>
  <path d="M131.9 152.9H46.5l-.7 4c67.1 16.2 111.5 55.4 129.9 102.5l-18.7-90.1c-3.2-12.4-12.8-16-25.1-16.4z" fill="#F9A533"/>
</svg>
